# xmcd
#
# Track frame offsets:
#	150
#	19365
#	39760
#	59322
#	77805
#	101415
#	120880
#	145387
#	166235
#	182250
#	199735
#	220915
#	239447
#	258360
#	271365
#	291347
#	308487
#
# Disc length: 4348 seconds
#
# Revision: 13
# Processed by: cddbd v1.5.2PL0 Copyright (c) Steve Scherf et al.
# Submitted via: Jack! The Knife 20 Magnifico
#
DISCID=e610fa11
DTITLE=Alanis Morissette - Supposed Former Infatuation Junkie
DYEAR=1998
DGENRE=Rock
TTITLE0=Front Row
TTITLE1=Baba
TTITLE2=Thank U
TTITLE3=Are You Still Mad
TTITLE4=Sympathetic Character
TTITLE5=That I Would Be Good
TTITLE6=The Couch
TTITLE7=Can't Not
TTITLE8=UR
TTITLE9=I Was Hoping
TTITLE10=One
TTITLE11=Would Not Come
TTITLE12=Unsent
TTITLE13=So Pure
TTITLE14=Joining You
TTITLE15=Heart Of The House
TTITLE16=Your Congratulations
EXTD=Glenn Ballard and Alanis Morissette
EXTT0=Morissette, Ballard
EXTT1=Morissette, Ballard
EXTT2=Morissette, Ballard
EXTT3=Alanis Morissette
EXTT4=Alanis Morissette
EXTT5=Morissette, Ballard
EXTT6=Morissette, Ballard
EXTT7=Morissette, Ballard
EXTT8=Morissette, Ballard
EXTT9=Morissette, Ballard
EXTT10=Morissette, Ballard
EXTT11=Morissette, Ballard
EXTT12=Morissette, Ballard
EXTT13=Morissette, Ballard
EXTT14=Morissette, Ballard
EXTT15=Alanis Morissette
EXTT16=Alanis Morissette
PLAYORDER=
